# xmcd
#
# Track frame offsets:
#	150
#	24233
#	49366
#	74906
#	95590
#	112545
#	131761
#	154155
#	176267
#	194351
#	216399
#	235055
#	253029
#	273092
#
# Disc length: 3919 seconds
#
# Revision: 0
# Processed by: cddbd v1.5.2PL0 Copyright (c) Steve Scherf et al.
# Submitted via: EasyCDDAExtractor 12.0.1.1
#
DISCID=c50f4d0e
DTITLE=Sir Elwoodin Hiljaiset Värit - Varjoja, varkaita ja vanhoja valokuvia, 
DTITLE=osa 3 (2 CD 1995-1999)
DYEAR=2009
DGENRE=
TTITLE0=Hämärän taa
TTITLE1=Kuolen
TTITLE2=Elisa
TTITLE3=Poste restante Manila
TTITLE4=Perunamaa
TTITLE5=Uusi isäntä (H.H.)
TTITLE6=Vanha valokuva
TTITLE7=Puunukke
TTITLE8=Kannelmäki-68
TTITLE9=Kotikaupunki
TTITLE10=Sua seuraan
TTITLE11=Kollikissa (kevätyön syntinen syyhy)
TTITLE12=Kuutamovalssi
TTITLE13=Matkamiehen unelmat (hyvää yötä)
EXTD=
EXTT0=
EXTT1=
EXTT2=
EXTT3=
EXTT4=
EXTT5=
EXTT6=
EXTT7=
EXTT8=
EXTT9=
EXTT10=
EXTT11=
EXTT12=
EXTT13=
PLAYORDER=
